STARTFONT 2.1
COMMENT $XConsortium: luIS14.bdf,v 1.7 94/04/02 15:59:51 gildea Exp $
COMMENT  (c) Copyright Bigelow & Holmes 1986, 1985. Lucida is a registered
COMMENT  trademark of Bigelow & Holmes. See LEGAL NOTICE file for terms 
COMMENT  of the license. 
COMMENT GRID 0014 0014 0200 0200
FONT -RFX-Serene-Medium-I-Normal-Sans-14-140-75-75-P-82-iso10646-0400
SIZE 14 72 72
FONTBOUNDINGBOX 16 15 -1 -2
STARTPROPERTIES 24
FONTNAME_REGISTRY ""
FOUNDRY "RFX"
FAMILY_NAME "Serene"
WEIGHT_NAME "Medium"
SLANT "I"
SETWIDTH_NAME "Normal"
ADD_STYLE_NAME "Sans"
PIXEL_SIZE 14
POINT_SIZE 140
RESOLUTION_X 75
RESOLUTION_Y 75
SPACING "P"
AVERAGE_WIDTH 82
CHARSET_REGISTRY "iso10646"
CHARSET_ENCODING "0400"
FONT_ASCENT 13
FONT_DESCENT 2
DEFAULT_CHAR 32
COPYRIGHT "Copyright Bigelow & Holmes 1986, 1985."
FACE_NAME "Lucida Sans Italic"
COPYRIGHT2 "Cyrillic glyphs copyright 2000 Dmitry Yu. Bolkhovityanov, bolkhov@inp.nsk.su"
SOURCEDATE "Sat Jul 22 15:16:36 2000"
PKGVERSION "1.1"
ASSEMBLER "cvtbdf.pl (Linux)"
ENDPROPERTIES
CHARS 305
STARTCHAR space
ENCODING 32
SWIDTH 316 0
DWIDTH 4 0
BBX 0 0 0 0
BITMAP
ENDCHAR
STARTCHAR exclam
ENCODING 33
SWIDTH 193 0
DWIDTH 4 0
BBX 2 10 1 0
BITMAP
40
40
40
40
80
80
80
00
80
80
ENDCHAR
STARTCHAR quotedbl
ENCODING 34
SWIDTH 361 0
DWIDTH 5 0
BBX 3 4 1 7
BITMAP
A0
A0
A0
A0
ENDCHAR
STARTCHAR numbersign
ENCODING 35
SWIDTH 633 0
DWIDTH 9 0
BBX 8 10 1 0
BITMAP
12
12
12
7F
24
24
FE
48
48
48
ENDCHAR
STARTCHAR dollar
ENCODING 36
SWIDTH 633 0
DWIDTH 9 0
BBX 7 12 1 -1
BITMAP
08
3C
4A
48
48
30
18
24
24
A4
78
20
ENDCHAR
STARTCHAR percent
ENCODING 37
SWIDTH 741 0
DWIDTH 11 0
BBX 9 10 1 0
BITMAP
6080
9100
9200
6400
0800
0800
1300
2480
4480
8300
ENDCHAR
STARTCHAR ampersand
ENCODING 38
SWIDTH 701 0
DWIDTH 10 0
BBX 9 10 1 0
BITMAP
1E00
2100
2100
1600
2880
4880
8500
8200
8600
7900
ENDCHAR
STARTCHAR quotesingle
ENCODING 39
SWIDTH 217 0
DWIDTH 3 0
BBX 1 4 1 7
BITMAP
80
80
80
80
ENDCHAR
STARTCHAR parenleft
ENCODING 40
SWIDTH 325 0
DWIDTH 5 0
BBX 5 12 1 -1
BITMAP
18
20
40
40
80
80
80
80
80
80
40
30
ENDCHAR
STARTCHAR parenright
ENCODING 41
SWIDTH 325 0
DWIDTH 5 0
BBX 5 12 -1 -1
BITMAP
60
10
08
08
08
08
08
08
10
10
20
C0
ENDCHAR
STARTCHAR asterisk
ENCODING 42
SWIDTH 470 0
DWIDTH 7 0
BBX 6 6 1 4
BITMAP
10
54
28
50
A8
20
ENDCHAR
STARTCHAR plus
ENCODING 43
SWIDTH 633 0
DWIDTH 9 0
BBX 7 7 1 1
BITMAP
08
08
10
FE
10
20
20
ENDCHAR
STARTCHAR comma
ENCODING 44
SWIDTH 316 0
DWIDTH 3 0
BBX 3 4 -1 -2
BITMAP
20
20
40
80
ENDCHAR
STARTCHAR minus
ENCODING 45
SWIDTH 633 0
DWIDTH 9 0
BBX 7 1 1 4
BITMAP
FE
ENDCHAR
STARTCHAR period
ENCODING 46
SWIDTH 316 0
DWIDTH 3 0
BBX 1 2 1 0
BITMAP
80
80
ENDCHAR
STARTCHAR slash
ENCODING 47
SWIDTH 482 0
DWIDTH 7 0
BBX 8 12 0 -1
BITMAP
01
02
02
04
08
08
10
10
20
40
40
80
ENDCHAR
STARTCHAR zero
ENCODING 48
SWIDTH 633 0
DWIDTH 9 0
BBX 7 10 1 0
BITMAP
1C
22
42
42
42
84
84
84
88
70
ENDCHAR
STARTCHAR one
ENCODING 49
SWIDTH 633 0
DWIDTH 9 0
BBX 3 10 3 0
BITMAP
20
E0
20
20
20
40
40
40
40
40
ENDCHAR
STARTCHAR two
ENCODING 50
SWIDTH 633 0
DWIDTH 9 0
BBX 7 10 1 0
BITMAP
3C
42
02
02
04
18
20
40
80
FC
ENDCHAR
STARTCHAR three
ENCODING 51
SWIDTH 633 0
DWIDTH 9 0
BBX 7 10 1 0
BITMAP
3C
42
02
04
38
04
04
04
88
70
ENDCHAR
STARTCHAR four
ENCODING 52
SWIDTH 633 0
DWIDTH 9 0
BBX 7 10 1 0
BITMAP
0C
14
24
44
44
88
FE
08
08
08
ENDCHAR
STARTCHAR five
ENCODING 53
SWIDTH 633 0
DWIDTH 9 0
BBX 7 10 1 0
BITMAP
3E
20
20
40
78
04
04
04
88
70
ENDCHAR
STARTCHAR six
ENCODING 54
SWIDTH 633 0
DWIDTH 9 0
BBX 7 10 1 0
BITMAP
1C
22
40
40
78
84
84
84
88
70
ENDCHAR
STARTCHAR seven
ENCODING 55
SWIDTH 633 0
DWIDTH 9 0
BBX 6 10 2 0
BITMAP
FC
04
04
08
10
20
40
40
80
80
ENDCHAR
STARTCHAR eight
ENCODING 56
SWIDTH 633 0
DWIDTH 9 0
BBX 7 10 1 0
BITMAP
3C
42
42
44
38
44
84
84
84
78
ENDCHAR
STARTCHAR nine
ENCODING 57
SWIDTH 633 0
DWIDTH 9 0
BBX 7 10 1 0
BITMAP
1C
22
42
42
42
3C
04
04
88
70
ENDCHAR
STARTCHAR colon
ENCODING 58
SWIDTH 316 0
DWIDTH 3 0
BBX 2 7 1 0
BITMAP
40
40
00
00
00
80
80
ENDCHAR
STARTCHAR semicolon
ENCODING 59
SWIDTH 316 0
DWIDTH 3 0
BBX 4 9 -1 -2
BITMAP
10
10
00
00
00
20
20
40
80
ENDCHAR
STARTCHAR less
ENCODING 60
SWIDTH 633 0
DWIDTH 9 0
BBX 7 7 1 1
BITMAP
06
18
60
80
40
20
10
ENDCHAR
STARTCHAR equal
ENCODING 61
SWIDTH 633 0
DWIDTH 9 0
BBX 7 3 1 3
BITMAP
7E
00
FC
ENDCHAR
STARTCHAR greater
ENCODING 62
SWIDTH 633 0
DWIDTH 9 0
BBX 7 7 1 1
BITMAP
10
08
04
02
0C
30
C0
ENDCHAR
STARTCHAR question
ENCODING 63
SWIDTH 464 0
DWIDTH 7 0
BBX 5 10 2 0
BITMAP
70
88
08
08
30
40
80
00
80
80
ENDCHAR
STARTCHAR at
ENCODING 64
SWIDTH 858 0
DWIDTH 12 0
BBX 10 10 1 0
BITMAP
0F00
3080
4040
43C0
8440
8880
8980
8EC0
4000
3F00
ENDCHAR
STARTCHAR A
ENCODING 65
SWIDTH 687 0
DWIDTH 10 0
BBX 7 10 1 0
BITMAP
06
0A
12
12
22
22
7E
42
82
82
ENDCHAR
STARTCHAR B
ENCODING 66
SWIDTH 593 0
DWIDTH 9 0
BBX 7 10 1 0
BITMAP
7C
42
42
44
7C
82
82
82
84
F8
ENDCHAR
STARTCHAR C
ENCODING 67
SWIDTH 679 0
DWIDTH 10 0
BBX 9 10 1 0
BITMAP
0F00
3080
4000
4000
8000
8000
8000
8000
8200
7C00
ENDCHAR
STARTCHAR D
ENCODING 68
SWIDTH 743 0
DWIDTH 11 0
BBX 9 10 1 0
BITMAP
7E00
4100
4080
4080
4080
8080
8100
8100
8200
FC00
ENDCHAR
STARTCHAR E
ENCODING 69
SWIDTH 547 0
DWIDTH 8 0
BBX 7 10 1 0
BITMAP
7E
40
40
40
7C
80
80
80
80
FC
ENDCHAR
STARTCHAR F
ENCODING 70
SWIDTH 536 0
DWIDTH 8 0
BBX 7 10 1 0
BITMAP
7E
40
40
40
7C
80
80
80
80
80
ENDCHAR
STARTCHAR G
ENCODING 71
SWIDTH 702 0
DWIDTH 10 0
BBX 9 10 1 0
BITMAP
0F00
3080
4000
4000
8000
8100
8100
8200
8200
7E00
ENDCHAR
STARTCHAR H
ENCODING 72
SWIDTH 735 0
DWIDTH 10 0
BBX 8 10 1 0
BITMAP
41
41
41
41
7F
82
82
82
82
82
ENDCHAR
STARTCHAR I
ENCODING 73
SWIDTH 289 0
DWIDTH 4 0
BBX 2 10 1 0
BITMAP
40
40
40
40
40
80
80
80
80
80
ENDCHAR
STARTCHAR J
ENCODING 74
SWIDTH 408 0
DWIDTH 6 0
BBX 5 12 0 -2
BITMAP
08
08
08
08
08
10
10
10
10
20
20
C0
ENDCHAR
STARTCHAR K
ENCODING 75
SWIDTH 635 0
DWIDTH 9 0
BBX 8 10 1 0
BITMAP
41
42
44
48
70
90
88
84
82
83
ENDCHAR
STARTCHAR L
ENCODING 76
SWIDTH 545 0
DWIDTH 8 0
BBX 6 10 1 0
BITMAP
40
40
40
40
40
80
80
80
80
FC
ENDCHAR
STARTCHAR M
ENCODING 77
SWIDTH 828 0
DWIDTH 13 0
BBX 11 10 1 0
BITMAP
38E0
28A0
2920
4920
4620
4440
4440
8440
8040
8040
ENDCHAR
STARTCHAR N
ENCODING 78
SWIDTH 741 0
DWIDTH 11 0
BBX 9 10 1 0
BITMAP
6080
5080
5080
4880
4880
8900
8900
8500
8500
8300
ENDCHAR
STARTCHAR O
ENCODING 79
SWIDTH 777 0
DWIDTH 11 0
BBX 9 10 1 0
BITMAP
0F00
3080
4080
4080
8080
8080
8100
8100
8600
7800
ENDCHAR
STARTCHAR P
ENCODING 80
SWIDTH 575 0
DWIDTH 8 0
BBX 7 10 1 0
BITMAP
7C
42
42
42
44
F8
80
80
80
80
ENDCHAR
STARTCHAR Q
ENCODING 81
SWIDTH 777 0
DWIDTH 11 0
BBX 9 12 1 -2
BITMAP
0F00
3080
4080
4080
8080
8080
8100
8100
8600
7800
0400
0300
ENDCHAR
STARTCHAR R
ENCODING 82
SWIDTH 632 0
DWIDTH 9 0
BBX 7 10 1 0
BITMAP
7C
42
42
42
44
F8
88
84
84
86
ENDCHAR
STARTCHAR S
ENCODING 83
SWIDTH 553 0
DWIDTH 8 0
BBX 7 10 1 0
BITMAP
3C
42
40
20
10
08
04
04
84
78
ENDCHAR
STARTCHAR T
ENCODING 84
SWIDTH 623 0
DWIDTH 9 0
BBX 8 10 1 0
BITMAP
FF
10
10
10
10
20
20
20
20
20
ENDCHAR
STARTCHAR U
ENCODING 85
SWIDTH 693 0
DWIDTH 10 0
BBX 8 10 1 0
BITMAP
41
41
41
41
82
82
82
82
44
38
ENDCHAR
STARTCHAR V
ENCODING 86
SWIDTH 687 0
DWIDTH 10 0
BBX 8 10 2 0
BITMAP
81
81
82
82
84
48
48
50
60
60
ENDCHAR
STARTCHAR W
ENCODING 87
SWIDTH 886 0
DWIDTH 13 0
BBX 12 10 1 0
BITMAP
8010
8010
8410
8420
8A20
4A40
5280
5280
6300
6300
ENDCHAR
STARTCHAR X
ENCODING 88
SWIDTH 620 0
DWIDTH 9 0
BBX 8 10 1 0
BITMAP
41
41
22
24
18
18
24
44
82
82
ENDCHAR
STARTCHAR Y
ENCODING 89
SWIDTH 608 0
DWIDTH 9 0
BBX 7 10 2 0
BITMAP
82
82
84
88
90
60
40
40
40
40
ENDCHAR
STARTCHAR Z
ENCODING 90
SWIDTH 578 0
DWIDTH 8 0
BBX 8 10 0 0
BITMAP
3F
01
02
04
08
10
20
40
80
FE
ENDCHAR
STARTCHAR bracketleft
ENCODING 91
SWIDTH 325 0
DWIDTH 5 0
BBX 5 12 1 -1
BITMAP
38
20
20
20
40
40
40
40
80
80
80
E0
ENDCHAR
STARTCHAR backslash
ENCODING 92
SWIDTH 482 0
DWIDTH 7 0
BBX 3 12 2 -1
BITMAP
80
80
80
80
40
40
40
40
20
20
20
20
ENDCHAR
STARTCHAR bracketright
ENCODING 93
SWIDTH 325 0
DWIDTH 5 0
BBX 5 12 -1 -1
BITMAP
38
08
08
08
10
10
10
10
20
20
20
E0
ENDCHAR
STARTCHAR asciicircum
ENCODING 94
SWIDTH 633 0
DWIDTH 9 0
BBX 6 7 2 3
BITMAP
0C
14
24
24
44
84
84
ENDCHAR
STARTCHAR underscore
ENCODING 95
SWIDTH 500 0
DWIDTH 10 0
BBX 8 1 1 -1
BITMAP
FF
ENDCHAR
STARTCHAR grave
ENCODING 96
SWIDTH 572 0
DWIDTH 9 0
BBX 4 2 4 9
BITMAP
C0
30
ENDCHAR
STARTCHAR a
ENCODING 97
SWIDTH 608 0
DWIDTH 9 0
BBX 7 8 1 0
BITMAP
1E
22
42
42
84
8C
94
64
ENDCHAR
STARTCHAR b
ENCODING 98
SWIDTH 608 0
DWIDTH 9 0
BBX 7 11 1 0
BITMAP
20
20
20
4C
52
62
42
84
84
88
F0
ENDCHAR
STARTCHAR c
ENCODING 99
SWIDTH 503 0
DWIDTH 7 0
BBX 6 8 1 0
BITMAP
1C
20
40
40
80
80
88
70
ENDCHAR
STARTCHAR d
ENCODING 100
SWIDTH 608 0
DWIDTH 9 0
BBX 8 11 1 0
BITMAP
01
01
01
1E
22
42
42
84
8C
94
64
ENDCHAR
STARTCHAR e
ENCODING 101
SWIDTH 529 0
DWIDTH 7 0
BBX 6 8 1 0
BITMAP
18
24
44
48
F0
80
88
70
ENDCHAR
STARTCHAR f
ENCODING 102
SWIDTH 383 0
DWIDTH 6 0
BBX 6 13 1 -2
BITMAP
1C
20
20
F8
40
40
40
40
40
80
80
80
80
ENDCHAR
STARTCHAR g
ENCODING 103
SWIDTH 608 0
DWIDTH 9 0
BBX 8 10 0 -2
BITMAP
0F
11
21
21
46
4A
32
02
84
78
ENDCHAR
STARTCHAR h
ENCODING 104
SWIDTH 620 0
DWIDTH 9 0
BBX 7 11 1 0
BITMAP
20
20
20
4C
52
62
42
84
84
84
84
ENDCHAR
STARTCHAR i
ENCODING 105
SWIDTH 289 0
DWIDTH 4 0
BBX 3 11 1 0
BITMAP
20
40
00
40
40
40
40
80
80
80
80
ENDCHAR
STARTCHAR j
ENCODING 106
SWIDTH 325 0
DWIDTH 5 0
BBX 5 13 0 -2
BITMAP
08
10
00
10
10
10
10
20
20
20
20
20
C0
ENDCHAR
STARTCHAR k
ENCODING 107
SWIDTH 572 0
DWIDTH 8 0
BBX 7 11 1 0
BITMAP
20
20
20
22
44
48
70
90
88
84
86
ENDCHAR
STARTCHAR l
ENCODING 108
SWIDTH 289 0
DWIDTH 5 0
BBX 3 11 1 0
BITMAP
20
20
20
40
40
40
40
80
80
80
80
ENDCHAR
STARTCHAR m
ENCODING 109
SWIDTH 934 0
DWIDTH 14 0
BBX 12 8 1 0
BITMAP
4C60
5290
6310
4210
8420
8420
8420
8420
ENDCHAR
STARTCHAR n
ENCODING 110
SWIDTH 620 0
DWIDTH 9 0
BBX 7 8 1 0
BITMAP
4C
52
62
42
84
84
84
84
ENDCHAR
STARTCHAR o
ENCODING 111
SWIDTH 566 0
DWIDTH 9 0
BBX 7 8 1 0
BITMAP
1C
22
42
82
82
84
88
70
ENDCHAR
STARTCHAR p
ENCODING 112
SWIDTH 608 0
DWIDTH 9 0
BBX 8 10 0 -2
BITMAP
26
29
31
21
42
42
44
78
80
80
ENDCHAR
STARTCHAR q
ENCODING 113
SWIDTH 608 0
DWIDTH 9 0
BBX 7 10 1 -2
BITMAP
1E
22
42
42
84
8C
94
64
08
08
ENDCHAR
STARTCHAR r
ENCODING 114
SWIDTH 478 0
DWIDTH 7 0
BBX 6 8 1 0
BITMAP
4C
48
50
60
80
80
80
80
ENDCHAR
STARTCHAR s
ENCODING 115
SWIDTH 489 0
DWIDTH 7 0
BBX 6 8 1 0
BITMAP
3C
40
40
30
08
08
08
F0
ENDCHAR
STARTCHAR t
ENCODING 116
SWIDTH 383 0
DWIDTH 6 0
BBX 5 10 1 0
BITMAP
20
20
F8
40
40
40
80
80
80
70
ENDCHAR
STARTCHAR u
ENCODING 117
SWIDTH 620 0
DWIDTH 9 0
BBX 7 8 1 0
BITMAP
42
42
42
42
84
8C
94
64
ENDCHAR
STARTCHAR v
ENCODING 118
SWIDTH 545 0
DWIDTH 7 0
BBX 6 8 1 0
BITMAP
84
84
84
88
88
90
A0
C0
ENDCHAR
STARTCHAR w
ENCODING 119
SWIDTH 795 0
DWIDTH 11 0
BBX 10 8 1 0
BITMAP
8040
8840
8840
8880
9480
9480
A500
C600
ENDCHAR
STARTCHAR x
ENCODING 120
SWIDTH 541 0
DWIDTH 8 0
BBX 8 8 0 0
BITMAP
21
21
22
14
28
44
84
84
ENDCHAR
STARTCHAR y
ENCODING 121
SWIDTH 548 0
DWIDTH 7 0
BBX 8 10 -1 -2
BITMAP
21
21
21
22
22
24
28
30
20
C0
ENDCHAR
STARTCHAR z
ENCODING 122
SWIDTH 536 0
DWIDTH 7 0
BBX 7 8 0 0
BITMAP
7E
04
08
10
20
40
80
FC
ENDCHAR
STARTCHAR braceleft
ENCODING 123
SWIDTH 325 0
DWIDTH 5 0
BBX 6 12 0 -1
BITMAP
0C
10
20
20
20
10
60
30
40
80
80
60
ENDCHAR
STARTCHAR bar
ENCODING 124
SWIDTH 233 0
DWIDTH 4 0
BBX 3 12 1 -1
BITMAP
20
20
20
20
40
40
40
40
80
80
80
80
ENDCHAR
STARTCHAR braceright
ENCODING 125
SWIDTH 325 0
DWIDTH 5 0
BBX 6 12 -1 -1
BITMAP
18
04
04
08
10
20
18
20
10
10
20
C0
ENDCHAR
STARTCHAR asciitilde
ENCODING 126
SWIDTH 633 0
DWIDTH 9 0
BBX 7 3 1 3
BITMAP
32
54
98
ENDCHAR
STARTCHAR space
ENCODING 160
SWIDTH 316 0
DWIDTH 4 0
BBX 0 0 0 0
BITMAP
ENDCHAR
STARTCHAR exclamdown
ENCODING 161
SWIDTH 193 0
DWIDTH 4 0
BBX 2 10 1 -2
BITMAP
40
40
00
40
40
40
80
80
80
80
ENDCHAR
STARTCHAR cent
ENCODING 162
SWIDTH 633 0
DWIDTH 9 0
BBX 7 12 1 -1
BITMAP
04
04
1C
2A
48
88
90
90
94
78
20
20
ENDCHAR
STARTCHAR sterling
ENCODING 163
SWIDTH 633 0
DWIDTH 9 0
BBX 8 10 1 0
BITMAP
0E
11
10
10
7C
20
20
20
40
FE
ENDCHAR
STARTCHAR currency
ENCODING 164
SWIDTH 633 0
DWIDTH 9 0
BBX 9 9 0 0
BITMAP
4080
2100
1E00
1200
2200
2400
3C00
4200
8100
ENDCHAR
STARTCHAR yen
ENCODING 165
SWIDTH 633 0
DWIDTH 9 0
BBX 8 10 1 0
BITMAP
41
41
42
44
48
FC
20
F8
20
20
ENDCHAR
STARTCHAR brokenbar
ENCODING 166
SWIDTH 233 0
DWIDTH 4 0
BBX 3 12 1 -1
BITMAP
20
20
20
20
20
00
00
80
80
80
80
80
ENDCHAR
STARTCHAR section
ENCODING 167
SWIDTH 633 0
DWIDTH 9 0
BBX 8 11 1 -1
BITMAP
1E
21
20
38
44
42
22
1C
04
84
78
ENDCHAR
STARTCHAR dieresis
ENCODING 168
SWIDTH 566 0
DWIDTH 9 0
BBX 4 2 4 9
BITMAP
90
90
ENDCHAR
STARTCHAR copyright
ENCODING 169
SWIDTH 858 0
DWIDTH 12 0
BBX 10 10 1 0
BITMAP
1E00
6180
4C80
9240
9040
9040
9240
4C80
6180
1E00
ENDCHAR
STARTCHAR ordfeminine
ENCODING 170
SWIDTH 392 0
DWIDTH 6 0
BBX 5 6 1 4
BITMAP
38
48
88
98
A8
C8
ENDCHAR
STARTCHAR guillemotleft
ENCODING 171
SWIDTH 527 0
DWIDTH 8 0
BBX 8 5 0 2
BITMAP
11
66
88
44
22
ENDCHAR
STARTCHAR logicalnot
ENCODING 172
SWIDTH 633 0
DWIDTH 9 0
BBX 7 4 1 1
BITMAP
FE
02
02
02
ENDCHAR
STARTCHAR hyphen
ENCODING 173
SWIDTH 313 0
DWIDTH 5 0
BBX 3 1 1 4
BITMAP
E0
ENDCHAR
STARTCHAR registered
ENCODING 174
SWIDTH 633 0
DWIDTH 9 0
BBX 8 8 1 2
BITMAP
3C
42
99
95
99
95
42
3C
ENDCHAR
STARTCHAR macron
ENCODING 175
SWIDTH 566 0
DWIDTH 9 0
BBX 4 1 4 9
BITMAP
F0
ENDCHAR
STARTCHAR degree
ENCODING 176
SWIDTH 269 0
DWIDTH 4 0
BBX 4 3 1 7
BITMAP
60
90
60
ENDCHAR
STARTCHAR plusminus
ENCODING 177
SWIDTH 633 0
DWIDTH 9 0
BBX 7 7 1 1
BITMAP
08
08
7E
10
10
00
FC
ENDCHAR
STARTCHAR twosuperior
ENCODING 178
SWIDTH 392 0
DWIDTH 6 0
BBX 4 6 1 4
BITMAP
60
10
10
60
80
F0
ENDCHAR
STARTCHAR threesuperior
ENCODING 179
SWIDTH 392 0
DWIDTH 6 0
BBX 5 6 1 4
BITMAP
70
08
30
10
10
E0
ENDCHAR
STARTCHAR acute
ENCODING 180
SWIDTH 566 0
DWIDTH 9 0
BBX 4 2 4 9
BITMAP
30
C0
ENDCHAR
STARTCHAR mu
ENCODING 181
SWIDTH 627 0
DWIDTH 9 0
BBX 8 10 0 -2
BITMAP
21
21
21
21
42
46
4A
72
80
80
ENDCHAR
STARTCHAR paragraph
ENCODING 182
SWIDTH 633 0
DWIDTH 9 0
BBX 6 11 2 -1
BITMAP
7C
94
94
94
68
28
28
28
50
50
50
ENDCHAR
STARTCHAR periodcentered
ENCODING 183
SWIDTH 316 0
DWIDTH 9 0
BBX 2 2 4 3
BITMAP
C0
C0
ENDCHAR
STARTCHAR cedilla
ENCODING 184
SWIDTH 566 0
DWIDTH 9 0
BBX 3 2 2 -2
BITMAP
20
C0
ENDCHAR
STARTCHAR onesuperior
ENCODING 185
SWIDTH 392 0
DWIDTH 6 0
BBX 3 6 1 4
BITMAP
20
E0
20
40
40
40
ENDCHAR
STARTCHAR ordmasculine
ENCODING 186
SWIDTH 392 0
DWIDTH 6 0
BBX 6 6 1 4
BITMAP
38
44
84
84
88
70
ENDCHAR
STARTCHAR guillemotright
ENCODING 187
SWIDTH 527 0
DWIDTH 8 0
BBX 8 5 0 2
BITMAP
44
22
11
66
88
ENDCHAR
STARTCHAR onequarter
ENCODING 188
SWIDTH 865 0
DWIDTH 12 0
BBX 10 10 1 0
BITMAP
4400
C400
4800
8800
9180
9280
2480
27C0
4100
4100
ENDCHAR
STARTCHAR onehalf
ENCODING 189
SWIDTH 865 0
DWIDTH 12 0
BBX 10 10 1 0
BITMAP
4400
C400
4800
8800
9180
9240
2080
2300
4400
4780
ENDCHAR
STARTCHAR threequarters
ENCODING 190
SWIDTH 865 0
DWIDTH 12 0
BBX 11 10 0 0
BITMAP
7100
0900
7200
1200
14C0
E540
0A40
0BE0
1080
1080
ENDCHAR
STARTCHAR questiondown
ENCODING 191
SWIDTH 464 0
DWIDTH 7 0
BBX 5 10 0 -2
BITMAP
08
08
00
08
10
60
80
80
88
70
ENDCHAR
STARTCHAR Agrave
ENCODING 192
SWIDTH 687 0
DWIDTH 10 0
BBX 8 13 1 0
BITMAP
0C
03
00
06
0A
12
12
22
22
7E
42
82
82
ENDCHAR
STARTCHAR Aacute
ENCODING 193
SWIDTH 687 0
DWIDTH 10 0
BBX 9 13 1 0
BITMAP
0180
0600
0000
0600
0A00
1200
1200
2200
2200
7E00
4200
8200
8200
ENDCHAR
STARTCHAR Acircumflex
ENCODING 194
SWIDTH 687 0
DWIDTH 10 0
BBX 8 13 1 0
BITMAP
06
09
00
06
0A
12
12
22
22
7E
42
82
82
ENDCHAR
STARTCHAR Atilde
ENCODING 195
SWIDTH 687 0
DWIDTH 10 0
BBX 9 13 1 0
BITMAP
0680
0B00
0000
0600
0A00
1200
1200
2200
2200
7E00
4200
8200
8200
ENDCHAR
STARTCHAR Adieresis
ENCODING 196
SWIDTH 687 0
DWIDTH 10 0
BBX 8 13 1 0
BITMAP
09
09
00
06
0A
12
12
22
22
7E
42
82
82
ENDCHAR
STARTCHAR Aring
ENCODING 197
SWIDTH 687 0
DWIDTH 10 0
BBX 8 13 1 0
BITMAP
06
09
06
06
0A
12
12
22
22
7E
42
82
82
ENDCHAR
STARTCHAR AE
ENCODING 198
SWIDTH 893 0
DWIDTH 13 0
BBX 13 10 1 0
BITMAP
03F8
0500
0900
1100
11F0
2200
7E00
4200
8200
83F0
ENDCHAR
STARTCHAR Ccedilla
ENCODING 199
SWIDTH 679 0
DWIDTH 10 0
BBX 9 12 1 -2
BITMAP
0F00
3080
4000
4000
8000
8000
8000
8000
8200
7C00
1000
6000
ENDCHAR
STARTCHAR Egrave
ENCODING 200
SWIDTH 547 0
DWIDTH 8 0
BBX 7 13 1 0
BITMAP
30
0C
00
7E
40
40
40
7C
80
80
80
80
FC
ENDCHAR
STARTCHAR Eacute
ENCODING 201
SWIDTH 547 0
DWIDTH 8 0
BBX 7 13 1 0
BITMAP
06
18
00
7E
40
40
40
7C
80
80
80
80
FC
ENDCHAR
STARTCHAR Ecircumflex
ENCODING 202
SWIDTH 547 0
DWIDTH 8 0
BBX 7 13 1 0
BITMAP
18
24
00
7E
40
40
40
7C
80
80
80
80
FC
ENDCHAR
STARTCHAR Edieresis
ENCODING 203
SWIDTH 547 0
DWIDTH 8 0
BBX 7 13 1 0
BITMAP
24
24
00
7E
40
40
40
7C
80
80
80
80
FC
ENDCHAR
STARTCHAR Igrave
ENCODING 204
SWIDTH 289 0
DWIDTH 4 0
BBX 4 13 0 0
BITMAP
C0
30
00
20
20
20
20
20
40
40
40
40
40
ENDCHAR
STARTCHAR Iacute
ENCODING 205
SWIDTH 289 0
DWIDTH 4 0
BBX 4 13 0 0
BITMAP
30
C0
00
20
20
20
20
20
40
40
40
40
40
ENDCHAR
STARTCHAR Icircumflex
ENCODING 206
SWIDTH 289 0
DWIDTH 4 0
BBX 3 13 1 0
BITMAP
40
A0
00
40
40
40
40
40
80
80
80
80
80
ENDCHAR
STARTCHAR Idieresis
ENCODING 207
SWIDTH 289 0
DWIDTH 4 0
BBX 3 13 1 0
BITMAP
A0
A0
00
40
40
40
40
40
80
80
80
80
80
ENDCHAR
STARTCHAR Eth
ENCODING 208
SWIDTH 743 0
DWIDTH 11 0
BBX 10 10 0 0
BITMAP
3F00
2080
2040
2040
F840
4040
4080
4080
4100
7E00
ENDCHAR
STARTCHAR Ntilde
ENCODING 209
SWIDTH 741 0
DWIDTH 11 0
BBX 9 13 1 0
BITMAP
0D00
1600
0000
6080
5080
5080
4880
4880
8900
8900
8500
8500
8300
ENDCHAR
STARTCHAR Ograve
ENCODING 210
SWIDTH 777 0
DWIDTH 11 0
BBX 9 13 1 0
BITMAP
1800
0600
0000
0F00
3080
4080
4080
8080
8080
8100
8100
8600
7800
ENDCHAR
STARTCHAR Oacute
ENCODING 211
SWIDTH 777 0
DWIDTH 11 0
BBX 9 13 1 0
BITMAP
0300
0C00
0000
0F00
3080
4080
4080
8080
8080
8100
8100
8600
7800
ENDCHAR
STARTCHAR Ocircumflex
ENCODING 212
SWIDTH 777 0
DWIDTH 11 0
BBX 9 13 1 0
BITMAP
0600
0900
0000
0F00
3080
4080
4080
8080
8080
8100
8100
8600
7800
ENDCHAR
STARTCHAR Otilde
ENCODING 213
SWIDTH 777 0
DWIDTH 11 0
BBX 9 13 1 0
BITMAP
0D00
1600
0000
0F00
3080
4080
4080
8080
8080
8100
8100
8600
7800
ENDCHAR
STARTCHAR Odieresis
ENCODING 214
SWIDTH 777 0
DWIDTH 11 0
BBX 9 13 1 0
BITMAP
0900
0900
0000
0F00
3080
4080
4080
8080
8080
8100
8100
8600
7800
ENDCHAR
STARTCHAR multiply
ENCODING 215
SWIDTH 633 0
DWIDTH 9 0
BBX 7 7 1 1
BITMAP
22
24
18
10
30
48
88
ENDCHAR
STARTCHAR Oslash
ENCODING 216
SWIDTH 777 0
DWIDTH 11 0
BBX 11 12 0 -1
BITMAP
0020
07A0
18C0
2140
2240
4440
4440
4880
5080
6300
BC00
8000
ENDCHAR
STARTCHAR Ugrave
ENCODING 217
SWIDTH 693 0
DWIDTH 10 0
BBX 8 13 1 0
BITMAP
30
0C
00
41
41
41
41
82
82
82
82
44
38
ENDCHAR
STARTCHAR Uacute
ENCODING 218
SWIDTH 693 0
DWIDTH 10 0
BBX 8 13 1 0
BITMAP
06
18
00
41
41
41
41
82
82
82
82
44
38
ENDCHAR
STARTCHAR Ucircumflex
ENCODING 219
SWIDTH 693 0
DWIDTH 10 0
BBX 8 13 1 0
BITMAP
0C
12
00
41
41
41
41
82
82
82
82
44
38
ENDCHAR
STARTCHAR Udieresis
ENCODING 220
SWIDTH 693 0
DWIDTH 10 0
BBX 8 13 1 0
BITMAP
12
12
00
41
41
41
41
82
82
82
82
44
38
ENDCHAR
STARTCHAR Yacute
ENCODING 221
SWIDTH 608 0
DWIDTH 9 0
BBX 7 13 2 0
BITMAP
0C
30
00
82
82
84
88
90
60
40
40
40
40
ENDCHAR
STARTCHAR Thorn
ENCODING 222
SWIDTH 575 0
DWIDTH 8 0
BBX 7 10 1 0
BITMAP
40
40
7C
42
42
82
8C
F0
80
80
ENDCHAR
STARTCHAR germandbls
ENCODING 223
SWIDTH 595 0
DWIDTH 9 0
BBX 8 12 1 -1
BITMAP
0E
11
21
22
24
42
41
41
41
82
9C
80
ENDCHAR
STARTCHAR agrave
ENCODING 224
SWIDTH 608 0
DWIDTH 9 0
BBX 7 11 1 0
BITMAP
30
0C
00
1E
22
42
42
84
8C
94
64
ENDCHAR
STARTCHAR aacute
ENCODING 225
SWIDTH 608 0
DWIDTH 9 0
BBX 7 11 1 0
BITMAP
06
18
00
1E
22
42
42
84
8C
94
64
ENDCHAR
STARTCHAR acircumflex
ENCODING 226
SWIDTH 608 0
DWIDTH 9 0
BBX 7 11 1 0
BITMAP
0C
12
00
1E
22
42
42
84
8C
94
64
ENDCHAR
STARTCHAR atilde
ENCODING 227
SWIDTH 608 0
DWIDTH 9 0
BBX 7 11 1 0
BITMAP
1A
2C
00
1E
22
42
42
84
8C
94
64
ENDCHAR
STARTCHAR adieresis
ENCODING 228
SWIDTH 608 0
DWIDTH 9 0
BBX 7 11 1 0
BITMAP
12
12
00
1E
22
42
42
84
8C
94
64
ENDCHAR
STARTCHAR aring
ENCODING 229
SWIDTH 608 0
DWIDTH 9 0
BBX 7 11 1 0
BITMAP
0C
12
0C
1E
22
42
42
84
8C
94
64
ENDCHAR
STARTCHAR ae
ENCODING 230
SWIDTH 893 0
DWIDTH 12 0
BBX 11 8 1 0
BITMAP
39C0
4620
0420
3CC0
4700
8400
9C40
6380
ENDCHAR
STARTCHAR ccedilla
ENCODING 231
SWIDTH 503 0
DWIDTH 7 0
BBX 6 10 1 -2
BITMAP
1C
20
40
40
80
80
88
70
20
C0
ENDCHAR
STARTCHAR egrave
ENCODING 232
SWIDTH 529 0
DWIDTH 7 0
BBX 6 11 1 0
BITMAP
30
0C
00
18
24
44
48
F0
80
88
70
ENDCHAR
STARTCHAR eacute
ENCODING 233
SWIDTH 529 0
DWIDTH 7 0
BBX 6 11 1 0
BITMAP
0C
30
00
18
24
44
48
F0
80
88
70
ENDCHAR
STARTCHAR ecircumflex
ENCODING 234
SWIDTH 529 0
DWIDTH 7 0
BBX 6 11 1 0
BITMAP
18
24
00
18
24
44
48
F0
80
88
70
ENDCHAR
STARTCHAR edieresis
ENCODING 235
SWIDTH 529 0
DWIDTH 7 0
BBX 6 11 1 0
BITMAP
24
24
00
18
24
44
48
F0
80
88
70
ENDCHAR
STARTCHAR igrave
ENCODING 236
SWIDTH 289 0
DWIDTH 4 0
BBX 4 11 0 0
BITMAP
C0
30
00
20
20
20
20
40
40
40
40
ENDCHAR
STARTCHAR iacute
ENCODING 237
SWIDTH 289 0
DWIDTH 4 0
BBX 4 11 0 0
BITMAP
30
C0
00
20
20
20
20
40
40
40
40
ENDCHAR
STARTCHAR icircumflex
ENCODING 238
SWIDTH 289 0
DWIDTH 4 0
BBX 3 11 1 0
BITMAP
40
A0
00
40
40
40
40
80
80
80
80
ENDCHAR
STARTCHAR idieresis
ENCODING 239
SWIDTH 289 0
DWIDTH 4 0
BBX 3 11 1 0
BITMAP
A0
A0
00
40
40
40
40
80
80
80
80
ENDCHAR
STARTCHAR eth
ENCODING 240
SWIDTH 556 0
DWIDTH 9 0
BBX 8 11 1 0
BITMAP
18
07
1C
04
1E
22
42
82
84
88
70
ENDCHAR
STARTCHAR ntilde
ENCODING 241
SWIDTH 620 0
DWIDTH 9 0
BBX 7 11 1 0
BITMAP
1A
2C
00
4C
52
62
42
84
84
84
84
ENDCHAR
STARTCHAR ograve
ENCODING 242
SWIDTH 566 0
DWIDTH 9 0
BBX 7 11 1 0
BITMAP
30
0C
00
1C
22
42
82
82
84
88
70
ENDCHAR
STARTCHAR oacute
ENCODING 243
SWIDTH 566 0
DWIDTH 9 0
BBX 7 11 1 0
BITMAP
06
18
00
1C
22
42
82
82
84
88
70
ENDCHAR
STARTCHAR ocircumflex
ENCODING 244
SWIDTH 566 0
DWIDTH 9 0
BBX 7 11 1 0
BITMAP
0C
12
00
1C
22
42
82
82
84
88
70
ENDCHAR
STARTCHAR otilde
ENCODING 245
SWIDTH 566 0
DWIDTH 9 0
BBX 7 11 1 0
BITMAP
1A
2C
00
1C
22
42
82
82
84
88
70
ENDCHAR
STARTCHAR odieresis
ENCODING 246
SWIDTH 566 0
DWIDTH 9 0
BBX 7 11 1 0
BITMAP
12
12
00
1C
22
42
82
82
84
88
70
ENDCHAR
STARTCHAR divide
ENCODING 247
SWIDTH 633 0
DWIDTH 9 0
BBX 7 7 1 1
BITMAP
08
08
00
FE
00
20
20
ENDCHAR
STARTCHAR oslash
ENCODING 248
SWIDTH 566 0
DWIDTH 9 0
BBX 9 10 0 -1
BITMAP
0080
0E80
1300
2500
4900
4900
5200
6400
B800
8000
ENDCHAR
STARTCHAR ugrave
ENCODING 249
SWIDTH 620 0
DWIDTH 9 0
BBX 7 11 1 0
BITMAP
30
0C
00
42
42
42
42
84
8C
94
64
ENDCHAR
STARTCHAR uacute
ENCODING 250
SWIDTH 620 0
DWIDTH 9 0
BBX 7 11 1 0
BITMAP
06
18
00
42
42
42
42
84
8C
94
64
ENDCHAR
STARTCHAR ucircumflex
ENCODING 251
SWIDTH 620 0
DWIDTH 9 0
BBX 7 11 1 0
BITMAP
18
24
00
42
42
42
42
84
8C
94
64
ENDCHAR
STARTCHAR udieresis
ENCODING 252
SWIDTH 620 0
DWIDTH 9 0
BBX 7 11 1 0
BITMAP
24
24
00
42
42
42
42
84
8C
94
64
ENDCHAR
STARTCHAR yacute
ENCODING 253
SWIDTH 548 0
DWIDTH 7 0
BBX 8 13 -1 -2
BITMAP
03
0C
00
21
21
21
22
22
24
28
30
20
C0
ENDCHAR
STARTCHAR thorn
ENCODING 254
SWIDTH 608 0
DWIDTH 9 0
BBX 8 12 0 -2
BITMAP
20
20
26
29
31
41
42
42
44
78
80
80
ENDCHAR
STARTCHAR ydieresis
ENCODING 255
SWIDTH 548 0
DWIDTH 7 0
BBX 8 13 -1 -2
BITMAP
12
12
00
21
21
21
22
22
24
28
30
20
C0
ENDCHAR
STARTCHAR uni0400
ENCODING 1024
SWIDTH 547 0
DWIDTH 8 0
BBX 7 13 1 0
BITMAP
30
0C
00
7E
40
40
40
7C
80
80
80
80
FC
ENDCHAR
STARTCHAR afii10023
ENCODING 1025
SWIDTH 547 0
DWIDTH 8 0
BBX 7 13 1 0
BITMAP
24
24
00
7E
40
40
40
7C
80
80
80
80
FC
ENDCHAR
STARTCHAR afii10051
ENCODING 1026
SWIDTH 857 0
DWIDTH 12 0
BBX 9 10 1 0
BITMAP
FF00
1000
1000
1700
1880
2080
2080
2080
2100
2600
ENDCHAR
STARTCHAR afii10052
ENCODING 1027
SWIDTH 571 0
DWIDTH 8 0
BBX 7 13 1 0
BITMAP
06
18
00
7E
40
40
40
40
80
80
80
80
80
ENDCHAR
STARTCHAR afii10053
ENCODING 1028
SWIDTH 714 0
DWIDTH 10 0
BBX 9 10 1 0
BITMAP
0F00
3080
4000
4000
F800
8000
8000
8000
8200
7C00
ENDCHAR
STARTCHAR afii10054
ENCODING 1029
SWIDTH 553 0
DWIDTH 8 0
BBX 7 10 1 0
BITMAP
3C
42
40
20
10
08
04
04
84
78
ENDCHAR
STARTCHAR afii10055
ENCODING 1030
SWIDTH 289 0
DWIDTH 4 0
BBX 2 10 1 0
BITMAP
40
40
40
40
40
80
80
80
80
80
ENDCHAR
STARTCHAR afii10056
ENCODING 1031
SWIDTH 289 0
DWIDTH 4 0
BBX 3 13 1 0
BITMAP
A0
A0
00
40
40
40
40
40
80
80
80
80
80
ENDCHAR
STARTCHAR afii10057
ENCODING 1032
SWIDTH 408 0
DWIDTH 6 0
BBX 5 12 0 -2
BITMAP
08
08
08
08
08
10
10
10
10
20
20
C0
ENDCHAR
STARTCHAR afii10058
ENCODING 1033
SWIDTH 1000 0
DWIDTH 14 0
BBX 13 10 0 0
BITMAP
1F80
1080
1080
1080
10E0
2110
2108
4108
4108
81F0
ENDCHAR
STARTCHAR afii10059
ENCODING 1034
SWIDTH 1000 0
DWIDTH 14 0
BBX 12 10 1 0
BITMAP
4100
4100
4100
4100
7FC0
8220
8210
8210
8210
83E0
ENDCHAR
STARTCHAR afii10060
ENCODING 1035
SWIDTH 857 0
DWIDTH 12 0
BBX 9 10 1 0
BITMAP
FF00
1000
1000
1700
1880
2080
2080
2080
2080
2080
ENDCHAR
STARTCHAR afii10061
ENCODING 1036
SWIDTH 642 0
DWIDTH 9 0
BBX 8 13 1 0
BITMAP
06
18
00
41
42
44
48
70
90
88
84
82
83
ENDCHAR
STARTCHAR afii10062
ENCODING 1038
SWIDTH 714 0
DWIDTH 10 0
BBX 8 12 2 0
BITMAP
1C
00
81
81
82
82
44
48
50
20
40
80
ENDCHAR
STARTCHAR afii10145
ENCODING 1039
SWIDTH 714 0
DWIDTH 10 0
BBX 8 12 1 -2
BITMAP
41
41
41
41
41
82
82
82
82
FE
10
10
ENDCHAR
STARTCHAR afii10017
ENCODING 1040
SWIDTH 714 0
DWIDTH 10 0
BBX 7 10 1 0
BITMAP
06
0A
12
12
22
22
7E
42
82
82
ENDCHAR
STARTCHAR afii10018
ENCODING 1041
SWIDTH 642 0
DWIDTH 9 0
BBX 8 10 1 0
BITMAP
7F
40
40
40
78
84
82
82
82
FC
ENDCHAR
STARTCHAR afii10019
ENCODING 1042
SWIDTH 642 0
DWIDTH 9 0
BBX 7 10 1 0
BITMAP
7C
42
42
44
7C
82
82
82
84
F8
ENDCHAR
STARTCHAR afii10020
ENCODING 1043
SWIDTH 571 0
DWIDTH 8 0
BBX 7 10 1 0
BITMAP
7E
40
40
40
40
80
80
80
80
80
ENDCHAR
STARTCHAR afii10021
ENCODING 1044
SWIDTH 714 0
DWIDTH 10 0
BBX 10 12 -1 -2
BITMAP
0FC0
0840
0840
0840
0840
1080
1080
2080
2080
7FC0
8080
8080
ENDCHAR
STARTCHAR afii10022
ENCODING 1045
SWIDTH 571 0
DWIDTH 8 0
BBX 7 10 1 0
BITMAP
7E
40
40
40
7C
80
80
80
80
FC
ENDCHAR
STARTCHAR afii10024
ENCODING 1046
SWIDTH 928 0
DWIDTH 13 0
BBX 13 10 0 0
BITMAP
2108
1110
0920
0540
0780
0A80
1240
2220
4210
C218
ENDCHAR
STARTCHAR afii10025
ENCODING 1047
SWIDTH 642 0
DWIDTH 9 0
BBX 7 10 1 0
BITMAP
3C
42
02
04
1C
02
02
02
84
78
ENDCHAR
STARTCHAR afii10026
ENCODING 1048
SWIDTH 714 0
DWIDTH 10 0
BBX 8 10 1 0
BITMAP
43
45
45
49
49
92
92
A2
A2
C2
ENDCHAR
STARTCHAR afii10027
ENCODING 1049
SWIDTH 714 0
DWIDTH 10 0
BBX 8 12 1 0
BITMAP
1C
00
43
45
45
49
49
92
92
A2
A2
C2
ENDCHAR
STARTCHAR afii10028
ENCODING 1050
SWIDTH 642 0
DWIDTH 9 0
BBX 8 10 1 0
BITMAP
41
42
44
48
70
90
88
84
82
83
ENDCHAR
STARTCHAR afii10029
ENCODING 1051
SWIDTH 714 0
DWIDTH 10 0
BBX 9 10 0 0
BITMAP
1F80
1080
1080
1080
1080
2100
2100
4100
4100
8100
ENDCHAR
STARTCHAR afii10030
ENCODING 1052
SWIDTH 928 0
DWIDTH 13 0
BBX 11 10 1 0
BITMAP
38E0
28A0
2920
4920
4620
4440
4440
8440
8040
8040
ENDCHAR
STARTCHAR afii10031
ENCODING 1053
SWIDTH 714 0
DWIDTH 10 0
BBX 8 10 1 0
BITMAP
41
41
41
41
7F
82
82
82
82
82
ENDCHAR
STARTCHAR afii10032
ENCODING 1054
SWIDTH 785 0
DWIDTH 11 0
BBX 9 10 1 0
BITMAP
0F00
3080
4080
4080
8080
8080
8100
8100
8600
7800
ENDCHAR
STARTCHAR afii10033
ENCODING 1055
SWIDTH 714 0
DWIDTH 10 0
BBX 8 10 1 0
BITMAP
7F
41
41
41
41
82
82
82
82
82
ENDCHAR
STARTCHAR afii10034
ENCODING 1056
SWIDTH 571 0
DWIDTH 8 0
BBX 7 10 1 0
BITMAP
7C
42
42
42
44
F8
80
80
80
80
ENDCHAR
STARTCHAR afii10035
ENCODING 1057
SWIDTH 714 0
DWIDTH 10 0
BBX 9 10 1 0
BITMAP
0F00
3080
4000
4000
8000
8000
8000
8000
8200
7C00
ENDCHAR
STARTCHAR afii10036
ENCODING 1058
SWIDTH 642 0
DWIDTH 9 0
BBX 8 10 1 0
BITMAP
FF
10
10
10
10
20
20
20
20
20
ENDCHAR
STARTCHAR afii10037
ENCODING 1059
SWIDTH 714 0
DWIDTH 10 0
BBX 8 10 2 0
BITMAP
81
81
82
82
44
48
50
20
40
80
ENDCHAR
STARTCHAR afii10038
ENCODING 1060
SWIDTH 857 0
DWIDTH 12 0
BBX 10 10 1 0
BITMAP
0400
1F00
2480
4440
8440
8840
8880
4900
3E00
0800
ENDCHAR
STARTCHAR afii10039
ENCODING 1061
SWIDTH 642 0
DWIDTH 9 0
BBX 8 10 1 0
BITMAP
41
41
22
24
18
18
24
44
82
82
ENDCHAR
STARTCHAR afii10040
ENCODING 1062
SWIDTH 714 0
DWIDTH 10 0
BBX 8 12 1 -2
BITMAP
41
41
41
41
41
82
82
82
82
FF
02
02
ENDCHAR
STARTCHAR afii10041
ENCODING 1063
SWIDTH 714 0
DWIDTH 10 0
BBX 7 10 2 0
BITMAP
82
82
82
82
86
8C
74
04
04
04
ENDCHAR
STARTCHAR afii10042
ENCODING 1064
SWIDTH 1000 0
DWIDTH 14 0
BBX 12 10 1 0
BITMAP
4210
4210
4210
4210
4210
8420
8420
8420
8420
FFE0
ENDCHAR
STARTCHAR afii10043
ENCODING 1065
SWIDTH 1000 0
DWIDTH 14 0
BBX 12 12 1 -2
BITMAP
4210
4210
4210
4210
4210
8420
8420
8420
8420
FFF0
0020
0020
ENDCHAR
STARTCHAR afii10044
ENCODING 1066
SWIDTH 714 0
DWIDTH 10 0
BBX 8 10 1 0
BITMAP
E0
20
20
20
3C
42
41
41
41
7E
ENDCHAR
STARTCHAR afii10045
ENCODING 1067
SWIDTH 928 0
DWIDTH 13 0
BBX 11 10 1 0
BITMAP
4020
4020
4020
4020
7820
8440
8240
8240
8240
FC40
ENDCHAR
STARTCHAR afii10046
ENCODING 1068
SWIDTH 642 0
DWIDTH 9 0
BBX 7 10 1 0
BITMAP
40
40
40
40
78
84
82
82
82
FC
ENDCHAR
STARTCHAR afii10047
ENCODING 1069
SWIDTH 714 0
DWIDTH 10 0
BBX 9 10 0 0
BITMAP
1F00
2080
0080
0080
0F80
0080
0100
0100
8600
7800
ENDCHAR
STARTCHAR afii10048
ENCODING 1070
SWIDTH 1000 0
DWIDTH 14 0
BBX 12 10 1 0
BITMAP
41E0
4610
4810
4810
7010
9010
9020
9020
90C0
8F00
ENDCHAR
STARTCHAR afii10049
ENCODING 1071
SWIDTH 714 0
DWIDTH 10 0
BBX 9 10 0 0
BITMAP
1F80
2080
2080
2080
1080
0F00
0900
1100
2100
C100
ENDCHAR
STARTCHAR afii10065
ENCODING 1072
SWIDTH 642 0
DWIDTH 9 0
BBX 7 8 1 0
BITMAP
1E
22
42
42
84
8C
94
64
ENDCHAR
STARTCHAR afii10066
ENCODING 1073
SWIDTH 642 0
DWIDTH 9 0
BBX 9 11 1 0
BITMAP
0380
0C00
1000
2C00
5200
6200
4200
8200
8400
8800
7000
ENDCHAR
STARTCHAR afii10067
ENCODING 1074
SWIDTH 642 0
DWIDTH 9 0
BBX 7 11 1 0
BITMAP
1C
22
22
44
4C
52
82
82
84
88
70
ENDCHAR
STARTCHAR afii10068
ENCODING 1075
SWIDTH 500 0
DWIDTH 7 0
BBX 6 8 1 0
BITMAP
38
44
04
18
60
80
88
70
ENDCHAR
STARTCHAR afii10069
ENCODING 1076
SWIDTH 642 0
DWIDTH 9 0
BBX 7 11 1 0
BITMAP
18
04
04
1A
26
42
82
82
84
88
70
ENDCHAR
STARTCHAR afii10070
ENCODING 1077
SWIDTH 500 0
DWIDTH 7 0
BBX 6 8 1 0
BITMAP
18
24
44
48
F0
80
88
70
ENDCHAR
STARTCHAR afii10072
ENCODING 1078
SWIDTH 785 0
DWIDTH 11 0
BBX 11 8 0 0
BITMAP
2220
1240
0A80
0700
0D00
1480
2440
C460
ENDCHAR
STARTCHAR afii10073
ENCODING 1079
SWIDTH 500 0
DWIDTH 7 0
BBX 7 8 0 0
BITMAP
1C
22
04
18
04
04
88
70
ENDCHAR
STARTCHAR afii10074
ENCODING 1080
SWIDTH 642 0
DWIDTH 9 0
BBX 7 8 1 0
BITMAP
42
42
42
42
84
8C
94
64
ENDCHAR
STARTCHAR afii10075
ENCODING 1081
SWIDTH 642 0
DWIDTH 9 0
BBX 7 10 1 0
BITMAP
18
00
42
42
42
42
84
8C
94
64
ENDCHAR
STARTCHAR afii10076
ENCODING 1082
SWIDTH 571 0
DWIDTH 8 0
BBX 7 8 1 0
BITMAP
42
44
48
70
90
88
84
86
ENDCHAR
STARTCHAR afii10077
ENCODING 1083
SWIDTH 642 0
DWIDTH 9 0
BBX 8 8 0 0
BITMAP
1F
11
11
11
22
22
42
82
ENDCHAR
STARTCHAR afii10078
ENCODING 1084
SWIDTH 857 0
DWIDTH 12 0
BBX 10 8 1 0
BITMAP
60C0
6140
5140
5240
9480
8880
8880
8080
ENDCHAR
STARTCHAR afii10079
ENCODING 1085
SWIDTH 642 0
DWIDTH 9 0
BBX 7 8 1 0
BITMAP
42
42
42
7E
84
84
84
84
ENDCHAR
STARTCHAR afii10080
ENCODING 1086
SWIDTH 642 0
DWIDTH 9 0
BBX 7 8 1 0
BITMAP
1C
22
42
82
82
84
88
70
ENDCHAR
STARTCHAR afii10081
ENCODING 1087
SWIDTH 642 0
DWIDTH 9 0
BBX 7 8 1 0
BITMAP
4C
52
62
42
84
84
84
84
ENDCHAR
STARTCHAR afii10082
ENCODING 1088
SWIDTH 642 0
DWIDTH 9 0
BBX 8 10 0 -2
BITMAP
26
29
31
21
42
42
44
78
80
80
ENDCHAR
STARTCHAR afii10083
ENCODING 1089
SWIDTH 500 0
DWIDTH 7 0
BBX 6 8 1 0
BITMAP
1C
20
40
40
80
80
88
70
ENDCHAR
STARTCHAR afii10084
ENCODING 1090
SWIDTH 1000 0
DWIDTH 14 0
BBX 12 8 1 0
BITMAP
4C60
5290
6310
4210
8420
8420
8420
8420
ENDCHAR
STARTCHAR afii10085
ENCODING 1091
SWIDTH 500 0
DWIDTH 7 0
BBX 8 10 -1 -2
BITMAP
21
21
21
22
22
24
28
30
20
C0
ENDCHAR
STARTCHAR afii10086
ENCODING 1092
SWIDTH 1000 0
DWIDTH 14 0
BBX 12 13 1 -2
BITMAP
0100
0100
0100
1AE0
2710
4210
4210
8420
8420
8E40
7580
0800
0800
ENDCHAR
STARTCHAR afii10087
ENCODING 1093
SWIDTH 571 0
DWIDTH 8 0
BBX 8 8 0 0
BITMAP
21
21
22
14
28
44
84
84
ENDCHAR
STARTCHAR afii10088
ENCODING 1094
SWIDTH 642 0
DWIDTH 9 0
BBX 7 10 1 -2
BITMAP
42
42
42
42
84
8C
94
66
02
02
ENDCHAR
STARTCHAR afii10089
ENCODING 1095
SWIDTH 571 0
DWIDTH 8 0
BBX 6 8 1 0
BITMAP
84
84
84
8C
98
68
08
08
ENDCHAR
STARTCHAR afii10090
ENCODING 1096
SWIDTH 1000 0
DWIDTH 14 0
BBX 12 8 1 0
BITMAP
4210
4210
4210
4210
8420
8C60
94A0
6320
ENDCHAR
STARTCHAR afii10091
ENCODING 1097
SWIDTH 1000 0
DWIDTH 14 0
BBX 12 10 1 -2
BITMAP
4210
4210
4210
4210
8420
8C60
94A0
6330
0010
0010
ENDCHAR
STARTCHAR afii10092
ENCODING 1098
SWIDTH 642 0
DWIDTH 9 0
BBX 7 8 1 0
BITMAP
E0
20
2C
32
42
42
44
38
ENDCHAR
STARTCHAR afii10093
ENCODING 1099
SWIDTH 857 0
DWIDTH 12 0
BBX 10 8 1 0
BITMAP
4040
4040
5840
6440
8480
8480
8880
7080
ENDCHAR
STARTCHAR afii10094
ENCODING 1100
SWIDTH 571 0
DWIDTH 8 0
BBX 6 8 1 0
BITMAP
40
40
58
64
84
84
88
70
ENDCHAR
STARTCHAR afii10095
ENCODING 1101
SWIDTH 571 0
DWIDTH 8 0
BBX 7 8 0 0
BITMAP
1C
22
02
1E
04
04
88
70
ENDCHAR
STARTCHAR afii10096
ENCODING 1102
SWIDTH 857 0
DWIDTH 12 0
BBX 10 8 1 0
BITMAP
4380
4440
4840
7040
9040
9080
9100
8E00
ENDCHAR
STARTCHAR afii10097
ENCODING 1103
SWIDTH 642 0
DWIDTH 9 0
BBX 8 8 0 0
BITMAP
1F
21
21
21
1E
12
22
C2
ENDCHAR
STARTCHAR uni0450
ENCODING 1104
SWIDTH 529 0
DWIDTH 7 0
BBX 6 11 1 0
BITMAP
30
0C
00
18
24
44
48
F0
80
88
70
ENDCHAR
STARTCHAR afii10071
ENCODING 1105
SWIDTH 529 0
DWIDTH 7 0
BBX 6 11 1 0
BITMAP
24
24
00
18
24
44
48
F0
80
88
70
ENDCHAR
STARTCHAR afii10099
ENCODING 1106
SWIDTH 642 0
DWIDTH 9 0
BBX 7 13 1 -2
BITMAP
20
7C
20
4C
52
62
42
84
84
84
88
08
10
ENDCHAR
STARTCHAR afii10100
ENCODING 1107
SWIDTH 500 0
DWIDTH 7 0
BBX 6 11 1 0
BITMAP
0C
30
00
38
44
04
18
60
80
88
70
ENDCHAR
STARTCHAR afii10101
ENCODING 1108
SWIDTH 500 0
DWIDTH 7 0
BBX 6 8 1 0
BITMAP
1C
20
40
70
80
80
88
70
ENDCHAR
STARTCHAR afii10102
ENCODING 1109
SWIDTH 489 0
DWIDTH 7 0
BBX 6 8 1 0
BITMAP
3C
40
40
30
08
08
08
F0
ENDCHAR
STARTCHAR afii10103
ENCODING 1110
SWIDTH 289 0
DWIDTH 4 0
BBX 3 11 1 0
BITMAP
20
40
00
40
40
40
40
80
80
80
80
ENDCHAR
STARTCHAR afii10104
ENCODING 1111
SWIDTH 289 0
DWIDTH 4 0
BBX 3 11 1 0
BITMAP
A0
A0
00
40
40
40
40
80
80
80
80
ENDCHAR
STARTCHAR afii10105
ENCODING 1112
SWIDTH 325 0
DWIDTH 5 0
BBX 5 13 0 -2
BITMAP
08
10
00
10
10
10
10
20
20
20
20
20
C0
ENDCHAR
STARTCHAR afii10106
ENCODING 1113
SWIDTH 928 0
DWIDTH 13 0
BBX 12 8 0 0
BITMAP
1F00
1100
1160
1190
2210
2210
4220
81C0
ENDCHAR
STARTCHAR afii10107
ENCODING 1114
SWIDTH 928 0
DWIDTH 13 0
BBX 11 8 1 0
BITMAP
4200
4200
42C0
7F20
8420
8420
8440
8380
ENDCHAR
STARTCHAR afii10108
ENCODING 1115
SWIDTH 642 0
DWIDTH 9 0
BBX 7 11 1 0
BITMAP
20
7C
20
4C
52
62
42
84
84
84
84
ENDCHAR
STARTCHAR afii10109
ENCODING 1116
SWIDTH 571 0
DWIDTH 8 0
BBX 7 11 1 0
BITMAP
06
18
00
42
44
48
70
90
88
84
86
ENDCHAR
STARTCHAR afii10110
ENCODING 1118
SWIDTH 500 0
DWIDTH 7 0
BBX 8 12 -1 -2
BITMAP
0C
00
21
21
21
22
22
24
28
30
20
C0
ENDCHAR
STARTCHAR afii10193
ENCODING 1119
SWIDTH 642 0
DWIDTH 9 0
BBX 7 10 1 -2
BITMAP
42
42
42
42
84
8C
94
64
20
20
ENDCHAR
STARTCHAR afii10146
ENCODING 1122
SWIDTH 714 0
DWIDTH 10 0
BBX 8 10 1 0
BITMAP
20
F8
20
20
3C
42
41
41
41
7E
ENDCHAR
STARTCHAR afii10194
ENCODING 1123
SWIDTH 642 0
DWIDTH 9 0
BBX 6 11 2 0
BITMAP
20
20
20
F0
40
58
64
84
84
88
70
ENDCHAR
STARTCHAR afii10147
ENCODING 1138
SWIDTH 785 0
DWIDTH 11 0
BBX 9 10 1 0
BITMAP
0F00
3080
4080
4080
FF80
8080
8100
8100
8600
7800
ENDCHAR
STARTCHAR afii10195
ENCODING 1139
SWIDTH 642 0
DWIDTH 9 0
BBX 7 8 1 0
BITMAP
1C
22
42
FE
82
84
88
70
ENDCHAR
STARTCHAR afii10148
ENCODING 1140
SWIDTH 714 0
DWIDTH 10 0
BBX 8 10 2 0
BITMAP
81
82
82
84
84
48
48
50
60
60
ENDCHAR
STARTCHAR afii10196
ENCODING 1141
SWIDTH 500 0
DWIDTH 7 0
BBX 6 8 1 0
BITMAP
84
88
88
90
90
A0
A0
C0
ENDCHAR
STARTCHAR afii10050
ENCODING 1168
SWIDTH 571 0
DWIDTH 8 0
BBX 8 12 1 0
BITMAP
01
01
7E
40
40
40
40
80
80
80
80
80
ENDCHAR
STARTCHAR afii10098
ENCODING 1169
SWIDTH 500 0
DWIDTH 7 0
BBX 6 9 1 0
BITMAP
04
7C
40
40
40
80
80
80
80
ENDCHAR
STARTCHAR uni04AA
ENCODING 1194
SWIDTH 679 0
DWIDTH 10 0
BBX 9 12 1 -2
BITMAP
0F00
3080
4000
4000
8000
8000
8000
8000
8200
7C00
1000
6000
ENDCHAR
STARTCHAR uni04AB
ENCODING 1195
SWIDTH 503 0
DWIDTH 7 0
BBX 6 10 1 -2
BITMAP
1C
20
40
40
80
80
88
70
20
C0
ENDCHAR
STARTCHAR uni04AE
ENCODING 1198
SWIDTH 608 0
DWIDTH 9 0
BBX 7 10 2 0
BITMAP
82
82
84
88
90
60
40
40
40
40
ENDCHAR
STARTCHAR uni04C0
ENCODING 1216
SWIDTH 289 0
DWIDTH 4 0
BBX 2 10 1 0
BITMAP
40
40
40
40
40
80
80
80
80
80
ENDCHAR
STARTCHAR uni04D2
ENCODING 1234
SWIDTH 687 0
DWIDTH 10 0
BBX 8 13 1 0
BITMAP
09
09
00
06
0A
12
12
22
22
7E
42
82
82
ENDCHAR
STARTCHAR uni04D3
ENCODING 1235
SWIDTH 608 0
DWIDTH 9 0
BBX 7 11 1 0
BITMAP
12
12
00
1E
22
42
42
84
8C
94
64
ENDCHAR
STARTCHAR uni04D4
ENCODING 1236
SWIDTH 893 0
DWIDTH 13 0
BBX 13 10 1 0
BITMAP
03F8
0500
0900
1100
11F0
2200
7E00
4200
8200
83F0
ENDCHAR
STARTCHAR uni04D5
ENCODING 1237
SWIDTH 893 0
DWIDTH 12 0
BBX 11 8 1 0
BITMAP
39C0
4620
0420
3CC0
4700
8400
9C40
6380
ENDCHAR
STARTCHAR uni04E6
ENCODING 1254
SWIDTH 777 0
DWIDTH 11 0
BBX 9 13 1 0
BITMAP
0900
0900
0000
0F00
3080
4080
4080
8080
8080
8100
8100
8600
7800
ENDCHAR
STARTCHAR uni04E7
ENCODING 1255
SWIDTH 566 0
DWIDTH 9 0
BBX 7 11 1 0
BITMAP
12
12
00
1C
22
42
82
82
84
88
70
ENDCHAR
STARTCHAR uni04E8
ENCODING 1256
SWIDTH 785 0
DWIDTH 11 0
BBX 9 10 1 0
BITMAP
0F00
3080
4080
4080
FF80
8080
8100
8100
8600
7800
ENDCHAR
STARTCHAR uni04E9
ENCODING 1257
SWIDTH 642 0
DWIDTH 9 0
BBX 7 8 1 0
BITMAP
1C
22
42
FE
82
84
88
70
ENDCHAR
ENDFONT
